<?xml version="1.0" encoding="utf-8"?>
<!-- Generator: Adobe Illustrator 23.0.2, SVG Export Plug-In . SVG Version: 6.00 Build 0)  -->
<svg version="1.1" xmlns="http://www.w3.org/2000/svg" xmlns:xlink="http://www.w3.org/1999/xlink" x="0px" y="0px"
	 viewBox="0 0 1024 768" style="enable-background:new 0 0 1024 768;" xml:space="preserve">
<style type="text/css">
	.st0{display:none;}
	.st1{display:inline;fill:#242B8C;}
	.st2{fill:#2A5B37;}
	.st3{fill:#6AAF61;}
	.st4{fill:#B95922;}
	.st5{fill:#F4EED8;}
	.st6{fill:#FFFFFF;}
</style>
<g id="Camada_2" class="st0">
	<rect x="-13.7" y="-52.6" class="st1" width="1112.6" height="872.6"/>
</g>
<g id="Camada_3">
	<path class="st2" d="M518,204c-15.6,15-7.7,40.1-3.1,92c2.5,29,4.4,71,0.3,123.1c38.9,0.1,77.7,0.2,116.6,0.3
		c1.2,0.2,13.1,2.2,18.9,13.4c5,9.7,1.7,19.1,1.1,20.6c14.7,2.8,24.2,15.6,22.9,28c-1,9.3-8,17.4-17.7,20.9
		c0.3,0.5,6.7,12.8-0.3,24.3c-5.2,8.6-15.4,13.1-25.7,11.1c1.1,3.5,2.2,8,2.6,13.4c0.3,4.5,0.1,8.5-0.3,11.7
		c19.3,0.1,38.7,0.2,58,0.3c0-118.8,0-237.5,0-356.3c-9.7-0.8-42.2-3.3-86.6-6.9C543.1,195.1,528.7,193.8,518,204z"/>
	<path class="st3" d="M545.4,274.6c3.3-2.2,6.8-4.6,10.3-7.4c8.3-6.6,15-13.4,20.3-19.6c19.3-1,38.6-2,58-2.9
		c0.1,1.3,1.9,17.8,15.3,24.2c4.7,2.2,9.2,2.5,12.2,2.3c1.3,8.2,2.7,16.4,4,24.6c-0.6,29.5-1.1,59-1.7,88.6
		c-0.6,23.3-1.1,46.7-1.7,70c-3.7,0.1-7.4,0.2-11.1,0.3c0.4-1.2,5.2-15.3-3.7-27.1c-5.9-7.8-14.3-9.9-16.7-10.4
		c-6.4,0.4-12.8,0.9-19.3,1.3c2.3-0.4,16.8-3.5,24.5-16.9c5-8.7,4.7-17.5,4.3-21.5c-1.4-13.2-9.2-22.8-22.6-29.3
		c-14.7-3.5-29-3.6-41.3,11.4c-9.7,14.6-10.3,28.9-0.9,42.9c1.3,2.1,3.8,5.2,7.8,7.9c5.4,3.6,10.8,4.4,13.4,4.7
		c-17.1,0.8-34.3,1.5-51.4,2.3C545,371.3,545.2,323,545.4,274.6z"/>
	<path class="st2" d="M444.5,252.6l60-16.1v27.8c-4.1,1.1-6.9,3.5-9.6,4.8l-0.1,9.2c1.2,3.8,1,7.2-1.7,10c-1.1,7.6-4,11.3-9.5,9.9
		c-2.5,3.6-4.8,7.9-8.3,4.9l1.6,14.5l7.7,28.7l8.4,30.9l9.5,35l1.3,4.8h-15.1L444.5,252.6"/>
	<polyline class="st3" points="504.5,298.7 490.8,311.3 504.5,362 504.5,298.7 	"/>
	<path class="st4" d="M604.2,363.1c-18-1.8-24.1,4.2-20.9,16.3c-3.3,15.5,1.8,25.3,20.9,25.5c22.5,4.7,31.2-1,20.9-20.9
		C632.1,364.4,623.5,358.9,604.2,363.1"/>
	<path class="st5" d="M334.3,420c-0.7,9.2-1.4,18.6-2,28c-0.7,11.3-1.4,22.4-2,33.4c0.4,27.2,0.8,54.5,1.1,81.7
		c31.4,0.9,62.9,1.7,94.3,2.6c-0.9-48.4-1.7-96.8-2.6-145.1C393.5,420.4,363.9,420.2,334.3,420z"/>
	<path class="st5" d="M464.7,403.1c-14.1,6-29.3,26.7-33.6,32.7v103.7c0.3,2.6,1.6,9.6,7.4,15.6c8.8,9.2,20.9,8.4,22.6,8.2
		c25.7,0.7,52.5,0.9,80.3,0.3c22.8-0.5,44.9-1.4,66.2-2.7c5.1,3.9,12,4,16.8,0.5c6.3-4.7,6-14,3-18.6c-2.2-3.3-5.1-3.3-5.1-4.9
		c-0.1-5.1,27.3-4.4,31.6-16.3c1.9-5.2-0.7-12.6-5-16.3c-3.7-3.1-7.9-2.9-7.9-4.2c0-2.5,16.7-0.5,25-10.4c3.7-4.4,6.6-12.2,3.4-17.1
		c-1.2-1.8-2.9-2.8-4.3-3.4c-14.4-2.5-19.5-7.3-21.1-11.7c-2.9-7.4,3.8-13.7-0.3-21.4c-3.2-6-10.4-8.2-13-8.9
		c-6.8-2-12.6-0.6-15,0.1c-29.9-0.5-59.8-1-89.7-1.4c-2.8,0.7-39.8,9.3-45.1-1.7c-0.5-1-0.8-2.3-0.6-4c0-1.5-0.4-16.1-8-18.8
		C469.7,401.4,467,402.1,464.7,403.1z"/>
</g>
<g id="Camada_1">
	<g>
		<path class="st6" d="M383.8,533.2c-1.4-1.4-3.3-2.2-5.3-2.2s-3.9,0.8-5.3,2.2c-1.4,1.4-2.2,3.3-2.2,5.3s0.8,3.9,2.2,5.3
			c1.4,1.4,3.3,2.2,5.3,2.2s3.9-0.8,5.3-2.2c1.4-1.4,2.2-3.3,2.2-5.3S385.2,534.6,383.8,533.2L383.8,533.2z"/>
		<path class="st6" d="M701.8,194.2c-1.4-1.4-3.3-2.2-5.3-2.2L512,192c-4.1,0-7.5,3.4-7.5,7.5V221L433.4,240c-4,1.1-6.4,5.2-5.3,9.2
			l36.8,137.5l-31.9,31.9c-4.1-5.9-10.9-9.8-18.6-9.8h-72c-12.4,0-22.5,10.1-22.5,22.5v122.2c0,12.4,10.1,22.5,22.5,22.5h72
			c10.5,0,19.4-7.3,21.8-17.1l8.9,7.8c6.9,6,15.7,9.3,24.8,9.3h226.4c4.1,0,7.5-3.4,7.5-7.5v-369C704,197.5,703.2,195.6,701.8,194.2
			z M422,553.5c0,4.1-3.4,7.5-7.5,7.5h-72c-4.1,0-7.5-3.4-7.5-7.5V431.3c0-4.1,3.4-7.5,7.5-7.5H371v86.4c0,4.1,3.4,7.5,7.5,7.5
			s7.5-3.4,7.5-7.5v-86.4h28.5c4.1,0,7.5,3.4,7.5,7.5L422,553.5L422,553.5z M444.5,252.6l60-16.1v27.8l-5,1.3
			c-1.9,0.5-3.6,1.8-4.6,3.5c-1,1.7-1.3,3.8-0.8,5.7c2.9,10.8-3.5,21.9-14.3,24.7c-1.9,0.5-3.6,1.8-4.6,3.5c-1,1.7-1.3,3.8-0.7,5.7
			L503.8,417h-15.1l-7.8-30.3c-0.2-1-0.7-1.9-1.3-2.6L444.5,252.6z M504.5,298.7V362l-13.7-50.7
			C496.5,308.4,501.2,303.9,504.5,298.7L504.5,298.7z M612.2,561H470.1c-5.5,0-10.8-2-15-5.6L437,539.6V435.9l32.7-32.7l5.9,23.2
			c0.8,3.3,3.8,5.6,7.3,5.6l147.5,0c5.8,0,10.5,4.7,10.5,10.5s-4.7,10.5-10.5,10.5h-75.6c-4.1,0-7.5,3.4-7.5,7.5s3.4,7.5,7.5,7.5h99
			c5.8,0,10.5,4.7,10.5,10.5s-4.7,10.5-10.5,10.5h-99c-4.1,0-7.5,3.4-7.5,7.5s3.4,7.5,7.5,7.5h83c5.8,0,10.5,4.7,10.5,10.5
			c0,5.8-4.7,10.5-10.5,10.5h-83c-4.1,0-7.5,3.4-7.5,7.5s3.4,7.5,7.5,7.5h57.4c5.8,0,10.5,4.7,10.5,10.5
			C622.7,556.3,618,561,612.2,561L612.2,561z M689,561h-53.5c1.5-3.2,2.3-6.8,2.3-10.5s-0.8-7.3-2.3-10.5h2.4
			c14.1,0,25.5-11.4,25.5-25.5c0-4.1-1-8-2.7-11.4c10.8-3,18.8-12.9,18.8-24.6c0-5.7-1.9-10.9-5-15.2v-95.1c-2.4,0-4.8,0-7.3,0
			c-2.6,0-5.2,0-7.7,0v85.3c-1.8-0.4-3.6-0.6-5.5-0.6h-0.2c1.5-3.2,2.3-6.8,2.3-10.5c0-14.1-11.4-25.5-25.5-25.5h-12.1
			c12.8-5.5,21.8-18.2,21.8-33c0-19.8-16.1-35.9-35.9-35.9s-35.9,16.1-35.9,35.9c0,14.8,9,27.5,21.8,33h-41V274.4
			c13.4-2.9,24-13.5,26.9-26.9h56.4c2.9,13.4,13.5,24,26.9,26.9c0,31.3,0,62.6,0,93.9c2.6,0,5.1,0,7.7,0c2.4,0,4.9,0,7.3,0
			c0-33.5,0-67,0-100.6c0-4.1-3.4-7.5-7.5-7.5c-11.1,0-20.2-9.1-20.2-20.2c0-4.1-3.4-7.5-7.5-7.5h-69.8c-4.1,0-7.5,3.4-7.5,7.5
			c0,11.1-9.1,20.2-20.2,20.2c-4.1,0-7.5,3.4-7.5,7.5V417h-14.6V207l169.5,0V561z M604.2,404.9c-11.5,0-20.9-9.4-20.9-20.9
			s9.4-20.9,20.9-20.9c11.5,0,20.9,9.4,20.9,20.9S615.8,404.9,604.2,404.9L604.2,404.9z"/>
	</g>
</g>
</svg>
