<?xml version="1.0" encoding="utf-8"?>
<!-- Generator: Adobe Illustrator 23.0.2, SVG Export Plug-In . SVG Version: 6.00 Build 0)  -->
<svg version="1.1" xmlns="http://www.w3.org/2000/svg" xmlns:xlink="http://www.w3.org/1999/xlink" x="0px" y="0px"
	 viewBox="0 0 1024 768" style="enable-background:new 0 0 1024 768;" xml:space="preserve">
<style type="text/css">
	.st0{display:none;}
	.st1{display:inline;fill:#242B8C;}
	.st2{fill:#FC3D3D;}
	.st3{fill:#FFD073;}
	.st4{fill:#F4EED8;}
	.st5{clip-path:url(#SVGID_2_);fill:#FFFFFF;}
	.st6{fill:#F9F9F9;}
</style>
<g id="Camada_2" class="st0">
	<rect x="-35.1" y="-52.3" class="st1" width="1112.6" height="872.6"/>
</g>
<g id="Camada_3">
	<path class="st2" d="M582.3,248.6c-22.9-1.3-48.3,16.5-54.3,37.7c-8.9,31.7,26.7,65.6,39.4,77.7c16,15.2,25,17.2,24.6,21.1
		c-1.1,11.2-76.5,18.5-372,6.3c-3.6-3.2-8.3-8.1-12.6-14.9c-4.3-6.7-6.6-13-8-17.7c1.4-94.9,2.9-189.8,4.3-284.7c0-6.6,5.4-12,12-12
		h501.2c6.6,0,12,5.4,12,12c-0.1,97.9-0.2,195.9-0.3,293.8c-34.5-22-59.6-44.2-77.1-61.7C617.4,272.2,606.5,250,582.3,248.6z"/>
	<path class="st3" d="M260.6,401.7c-1.5,1.7-6.7,8.2-6.3,17.1c0.4,9.9,7.4,18.9,17.7,22.9c12.1-3.6,25.4-8.2,39.4-14.3
		c16.9-7.3,31.6-15.2,44-22.8C323.8,403.6,292.2,402.7,260.6,401.7z"/>
	<path class="st3" d="M279.5,457.7c-9.1,19.3-3.7,49.2,17.1,65.1c17.4,13.3,37.7,10.9,42.3,10.3C431.2,497,523.6,460.8,616,424.6
		c-5.9-7.6-11.8-15.2-17.7-22.9c-59-0.2-118.1-0.4-177.1-0.6c-18.2,4.3-44.8,11.2-76.6,21.7C292.4,440.2,283.9,448.4,279.5,457.7z"
		/>
	<path class="st3" d="M745.3,229.4c-7.8,1.2-9.3,43.4-4.3,126.4c-1.1,6.4-2.3,12.9-3.4,19.3c2,0.4,21.1,4,35.6-9.4
		c9.5-8.8,11.5-20,12-23.6c1-7,0.1-12.5-0.9-17.6c-1.1-5.8-3.5-14.8-9.4-24.9C761.2,251.9,751.3,228.5,745.3,229.4z"/>
	<path class="st4" d="M770.1,208.4c43.4,7.3,63.8,89.3,65.6,96.9c2,44.6,3.5,90.3,4.3,137.1c0.8,48.6,1,96,0.4,142.3
		c0.4,41.3,0.9,82.6,1.3,123.9c-64,0-128,0-192,0c-2.9-37.1-5.7-74.3-8.6-111.4c-8.3-17.7-20.5-49.5-21-90.9
		c-0.4-33.4,6.9-60.2,13.1-77.1c-36.1-45-72.2-90-108.2-135c4.4-8.8,12.3-21.8,26.1-33.9c8.6-7.5,17.1-12.5,24-15.9
		c11,4.6,23.3,10.7,36,18.9c30.1,19.3,50.1,42.3,62.6,59.6c18.4,17.7,36.8,35.3,55.2,53c3.9,1.2,9.8,2.4,16.8,1.8
		c14.3-1.1,23.9-8.8,27.4-12c7.4-12.6,14.9-25.3,22.3-37.9c-26.6-48.7-53.4-105.4-38.6-117.6C760.7,206.9,766.3,207.8,770.1,208.4z"
		/>
</g>
<g id="Camada_1">
	<g>
		<g>
			<g>
				<defs>
					<rect id="SVGID_1_" x="185.2" y="47.8" width="672.4" height="672.4"/>
				</defs>
				<clipPath id="SVGID_2_">
					<use xlink:href="#SVGID_1_"  style="overflow:visible;"/>
				</clipPath>
				<path class="st5" d="M745.2,166.4v-62.7c0-30.9-25.1-56-56-56h-448c-30.9,0-56,25.1-56,56v246.4c0.1,28.6,21.8,52.5,50.2,55.4
					l42.1,109.3c11.1,28.9,43.5,43.2,72.4,32.1l262.9-101.3c-18.2,47.5-13,100.7,14,143.8l6.4,10.3v108.8c0,6.2,5,11.2,11.2,11.2
					h201.6c6.2,0,11.2-5,11.2-11.2V338.9c-0.1-38.7-15.5-75.9-42.9-103.2L745.2,166.4z M745.2,233.4l34,88.2
					c6.7,17.3-2,36.8-19.3,43.4l-19.4,7.5c3.1-7.1,4.7-14.7,4.7-22.4V233.4z M207.6,350.2V103.8c0-18.6,15-33.6,33.6-33.6h448
					c18.6,0,33.6,15,33.6,33.6V175h-0.1l0.1,0.3v175c-0.1,2-0.3,3.9-0.8,5.8L619.5,253.4c-23.1-22.5-59.8-22.7-83.1-0.4
					c-23.3,22.3-24.7,59.1-3.1,83l43.7,47.8H241.2C222.6,383.8,207.6,368.7,207.6,350.2L207.6,350.2z M351.1,406.2l-79.7,30.7
					l-11.8-30.7H351.1z M341.9,526.1c-17.3,6.7-36.8-2-43.4-19.3l-18.9-49.1l133.7-51.5v-0.1h184.3l14.6,15.9L341.9,526.1z
					 M834.9,697.4H655.6v-89.6h179.2V697.4z M834.9,585.4H650.6l-4.9-7.8c-27.3-43.6-28.4-98.8-2.8-143.5c2.4-4.2,1.8-9.5-1.5-13.1
					l-91.8-100.1c-13.7-15-12.9-38.1,1.7-52.2c14.7-14,37.8-13.8,52.2,0.5l178.5,178.5l15.8-15.8l-41.4-41.4L768,386
					c28.8-11.1,43.2-43.5,32.1-72.4l-37.9-98.4l36.3,36.4c23.2,23.2,36.3,54.6,36.4,87.4V585.4z"/>
			</g>
		</g>
		<path class="st3" d="M312.9,204.6c16.1,0,29.1-13,29.1-29.1v-53.8c0-16.1-13-29.1-29.1-29.1h-53.8c-16.1,0-29.1,13-29.1,29.1v53.8
			c0,16.1,13,29.1,29.1,29.1H312.9z M252.4,175.4v-15.7h22.4v-22.4h-22.4v-15.7c0-3.7,3-6.7,6.7-6.7h53.8c3.7,0,6.7,3,6.7,6.7v15.7
			h-22.4v22.4h22.4v15.7c0,3.7-3,6.7-6.7,6.7h-53.8C255.4,182.2,252.4,179.2,252.4,175.4L252.4,175.4z"/>
		<rect x="241.2" y="238.2" class="st3" width="44.8" height="22.4"/>
		<rect x="241.2" y="305.4" class="st3" width="44.8" height="22.4"/>
		<rect x="442.8" y="305.4" class="st3" width="44.8" height="22.4"/>
		<rect x="308.4" y="238.2" class="st3" width="44.8" height="22.4"/>
		<rect x="375.6" y="238.2" class="st3" width="44.8" height="22.4"/>
		<rect x="442.8" y="238.2" class="st3" width="44.8" height="22.4"/>
		<rect x="655.6" y="103.8" class="st3" width="22.4" height="33.6"/>
		<rect x="610.8" y="103.8" class="st3" width="22.4" height="33.6"/>
		<rect x="566" y="103.8" class="st3" width="22.4" height="33.6"/>
		<rect x="521.2" y="103.8" class="st3" width="22.4" height="33.6"/>
		<rect x="678" y="630.2" class="st6" width="22.4" height="22.4"/>
	</g>
</g>
</svg>
