<svg xmlns="http://www.w3.org/2000/svg" width="1280" height="453.492" viewBox="0 0 1280 453.492"><defs><style>.a{fill:#2d329f;}.b{fill:#262a81;}.c{fill:#20226e;}</style></defs><g transform="translate(0 -346.85)"><path class="a" d="M1247,216.429s-79.413-22.843-176.755,29.7-117.838,91.521-151.139,129.1A171.621,171.621,0,0,0,876.839,503.29c3.843,42.271,42.267,161.133,42.267,161.133H1247V216.429Z" transform="translate(33 135.362)"/><path class="b" d="M0,565.11S84.906,521.962,193.474,531.7s161.27,35.476,174.58,42.131S442.623,623.57,478.813,618s64.932-48.377,91.378-69.255S673.021,500.5,693,495.14c24.367-5.848,38.125-8.455,64.817-9.26,24.844-.749,52.15,2.128,71.753,6.851,40.335,9.718,90.473,26.446,100.217,36.189s122.487,47.325,180.947,51.5,168.42-31.674,168.42-31.674V800.342H0Z"/><path class="c" d="M0,705.692s246.087-7.238,352.846-61.522S470.461,535.6,522.936,541.03s66.276,42.433,123.044,63.331,68.952,17.487,132.794,21.386,120.03-27.563,135.555-41.687,55.83-66.349,110.214-76.475,90.778,1.119,124.468,18.969c19.338,10.246,32.722,27.4,45.221,45.029a80.956,80.956,0,0,0,38.71,31.3c39.218,14.992,44.542,32.242,44.542,32.242V797.975H0Z"/></g></svg>