<?xml version="1.0" encoding="utf-8"?>
<!-- Generator: Adobe Illustrator 23.0.0, SVG Export Plug-In . SVG Version: 6.00 Build 0)  -->
<svg version="1.1" id="OBJECTS" xmlns="http://www.w3.org/2000/svg" xmlns:xlink="http://www.w3.org/1999/xlink" x="0px" y="0px"
	 viewBox="0 0 500 500" style="enable-background:new 0 0 500 500;" xml:space="preserve">
<style type="text/css">
	.st0{fill:#242B8C;}
	.st1{fill:#131852;}
	.st2{fill:#6D26D7;}
	.st3{fill:#5202B5;}
	.st4{fill:#E2E1E5;}
	.st5{fill:#EBE0BE;}
	.st6{fill:#B95922;}
	.st7{fill:#F4EED8;}
	.st8{fill:#AD4B1A;}
	.st9{opacity:0.5;fill:#FFFFFF;}
	.st10{fill:#FFFFFF;}
	.st11{fill:#FF6748;}
	.st12{fill:#0E0E15;}
	.st13{fill:#E34932;}
	.st14{fill:#00BEB9;}
	.st15{fill:#F065A6;}
</style>
<g>
	<g>
		<g>
			<g>
				<path class="st0" d="M171.33,441.49c8.2,0,14.86,6.65,14.86,14.86c0,8.2-6.65,14.85-14.86,14.85s-14.85-6.65-14.85-14.85
					C156.48,448.14,163.13,441.49,171.33,441.49z"/>
				<path class="st0" d="M468.86,315.87c4.6,0,8.33,3.73,8.33,8.33c0,4.6-3.73,8.33-8.33,8.33c-4.6,0-8.33-3.73-8.33-8.33
					C460.53,319.6,464.26,315.87,468.86,315.87z"/>
				<path class="st1" d="M140.71,44.94c4.6,0,8.33,3.73,8.33,8.33s-3.73,8.33-8.33,8.33c-4.6,0-8.33-3.73-8.33-8.33
					S136.11,44.94,140.71,44.94z"/>
				<path class="st1" d="M456.53,284.99c6.27,0,11.35,5.08,11.35,11.35c0,6.27-5.08,11.35-11.35,11.35
					c-6.27,0-11.35-5.08-11.35-11.35C445.18,290.07,450.26,284.99,456.53,284.99z"/>
				<path class="st0" d="M459.51,206.76c6.27,0,11.35,5.08,11.35,11.35c0,6.27-5.08,11.35-11.35,11.35
					c-6.27,0-11.35-5.08-11.35-11.35C448.16,211.84,453.24,206.76,459.51,206.76z"/>
				<path class="st0" d="M38.36,294.27c6.27,0,11.35,5.08,11.35,11.35c0,6.27-5.08,11.35-11.35,11.35
					c-6.27,0-11.35-5.08-11.35-11.35C27.01,299.35,32.09,294.27,38.36,294.27z"/>
				<path class="st1" d="M40.58,263.24c4.44,0,8.04,3.6,8.04,8.04c0,4.44-3.6,8.04-8.04,8.04c-4.44,0-8.04-3.6-8.04-8.04
					C32.54,266.84,36.14,263.24,40.58,263.24z"/>
				<path class="st2" d="M179.9,354.17c5.87,0,10.62,4.76,10.62,10.63c0,5.87-4.76,10.62-10.62,10.62
					c-5.87,0-10.63-4.76-10.63-10.62C169.27,358.93,174.03,354.17,179.9,354.17z"/>
				<path class="st3" d="M334.57,221.2c5.87,0,10.63,4.76,10.63,10.63c0,5.87-4.76,10.62-10.63,10.62
					c-5.87,0-10.62-4.76-10.62-10.62C323.95,225.95,328.71,221.2,334.57,221.2z"/>
				<g>
					<g>
						<g>
							<g>
								<g>
									<g>
										<g>
											<path class="st1" d="M337.32,408.95H151.76c-4.36,0-7.89-3.53-7.89-7.89V85.46c0-4.36,3.53-7.89,7.89-7.89h185.56
												c4.36,0,7.89,3.53,7.89,7.89v315.6C345.22,405.42,341.68,408.95,337.32,408.95z"/>
										</g>
									</g>
								</g>
								<path class="st0" d="M325.7,83.5h-162.3c-6.95,0-12.59,5.64-12.59,12.59v294.34c0,6.95,5.64,12.59,12.59,12.59h162.3
									c6.95,0,12.59-5.64,12.59-12.59V96.09C338.28,89.14,332.65,83.5,325.7,83.5z"/>
								<path class="st4" d="M160.2,106.75V382.6c0,6.42,5.22,11.63,11.67,11.63h145.35c6.44,0,11.66-5.21,11.66-11.63V106.75H160.2
									z"/>
								<path class="st1" d="M263.39,99.32h-33.4c-1.42,0-2.58-1.16-2.58-2.58l0,0c0-1.43,1.16-2.58,2.58-2.58h33.4
									c1.43,0,2.58,1.16,2.58,2.58l0,0C265.98,98.16,264.82,99.32,263.39,99.32z"/>
							</g>
							<g>
								<rect x="160.2" y="106.75" class="st5" width="168.68" height="5.14"/>
								<g>
									<g>
										<g>
											<g>
												<g>
													<path class="st5" d="M143.97,179.05h-16.59c-2.89,0-5.24-2.35-5.24-5.24v-14.17h27.07v14.17
														C149.21,176.7,146.86,179.05,143.97,179.05z"/>
												</g>
											</g>
											<g>
												<path class="st6" d="M173.15,179.05h-18.7c-2.89,0-5.24-2.35-5.24-5.24v-14.17h29.17v14.17
													C178.38,176.7,176.04,179.05,173.15,179.05z"/>
											</g>
											<g>
												<g>
													<path class="st5" d="M200.42,179.05h-16.8c-2.89,0-5.24-2.35-5.24-5.24v-14.17h27.28v14.17
														C205.66,176.7,203.32,179.05,200.42,179.05z"/>
												</g>
											</g>
											<g>
												<g>
													<path class="st6" d="M226.24,179.05H210.9c-2.89,0-5.24-2.35-5.24-5.24v-14.17h25.82v14.17
														C231.48,176.7,229.14,179.05,226.24,179.05z"/>
												</g>
											</g>
										</g>
										<g>
											<polygon class="st7" points="160.2,111.89 122.15,159.64 244.54,159.64 244.54,111.89 											"/>
											<polygon class="st6" points="176.65,111.89 149.21,159.64 244.54,159.64 244.54,111.89 											"/>
											<polygon class="st7" points="196.42,111.89 178.39,159.64 244.54,159.64 244.54,111.89 											"/>
											<polygon class="st6" points="214.9,111.89 205.66,159.64 244.54,159.64 244.54,111.89 											"/>
										</g>
									</g>
									<g>
										<path class="st5" d="M231.48,159.64v9.96c0,5.22,5.78,9.45,12.91,9.45h0.29c7.13,0,12.91-4.23,12.91-9.45v-9.96H231.48z"
											/>
										<g>
											<g>
												<g>
													<path class="st5" d="M345.11,179.05h16.59c2.89,0,5.24-2.35,5.24-5.24v-14.17h-27.07v14.17
														C339.87,176.7,342.22,179.05,345.11,179.05z"/>
												</g>
											</g>
											<g>
												<path class="st6" d="M315.94,179.05h18.7c2.89,0,5.24-2.35,5.24-5.24v-14.17H310.7v14.17
													C310.7,176.7,313.04,179.05,315.94,179.05z"/>
											</g>
											<g>
												<g>
													<path class="st5" d="M288.66,179.05h16.8c2.89,0,5.24-2.35,5.24-5.24v-14.17h-27.28v14.17
														C283.42,176.7,285.77,179.05,288.66,179.05z"/>
												</g>
											</g>
											<g>
												<g>
													<path class="st6" d="M262.84,179.05h15.34c2.89,0,5.24-2.35,5.24-5.24v-14.17H257.6v14.17
														C257.6,176.7,259.95,179.05,262.84,179.05z"/>
												</g>
											</g>
										</g>
										<g>
											<polygon class="st7" points="328.88,111.89 244.54,111.89 244.54,159.64 366.94,159.64 											"/>
											<polygon class="st6" points="312.43,111.89 244.54,111.89 244.54,159.64 339.87,159.64 											"/>
											<polygon class="st7" points="244.54,111.89 244.54,159.64 310.7,159.64 292.66,111.89 											"/>
											<polygon class="st6" points="244.54,111.89 244.54,159.64 283.42,159.64 274.18,111.89 											"/>
											<polygon class="st7" points="235.22,111.89 231.48,159.64 257.6,159.64 253.86,111.89 											"/>
										</g>
									</g>
								</g>
								<rect x="176.65" y="106.75" class="st6" width="19.63" height="5.14"/>
								<rect x="292.66" y="106.75" class="st6" width="19.77" height="5.14"/>
								<rect x="214.9" y="106.75" class="st6" width="20.31" height="5.14"/>
								<rect x="253.86" y="106.75" class="st6" width="20.32" height="5.14"/>
							</g>
						</g>
						<g>
							<rect x="174.57" y="193.61" class="st6" width="39.91" height="46.55"/>
							<rect x="224.59" y="193.61" class="st6" width="39.91" height="46.55"/>
							<g>
								<g>
									<polygon class="st0" points="231.6,197.25 232.26,198.59 233.74,198.8 232.67,199.85 232.93,201.32 231.6,200.62 
										230.28,201.32 230.53,199.85 229.46,198.8 230.94,198.59 									"/>
									<polygon class="st0" points="238.07,197.25 238.73,198.59 240.21,198.8 239.14,199.85 239.39,201.32 238.07,200.62 
										236.75,201.32 237,199.85 235.93,198.8 237.41,198.59 									"/>
									<polygon class="st0" points="244.54,197.25 245.2,198.59 246.68,198.8 245.61,199.85 245.86,201.32 244.54,200.62 
										243.22,201.32 243.47,199.85 242.4,198.8 243.88,198.59 									"/>
									<polygon class="st0" points="251.01,197.25 251.67,198.59 253.15,198.8 252.08,199.85 252.33,201.32 251.01,200.62 
										249.69,201.32 249.94,199.85 248.87,198.8 250.35,198.59 									"/>
									<polygon class="st0" points="257.48,197.25 258.14,198.59 259.62,198.8 258.55,199.85 258.8,201.32 257.48,200.62 
										256.16,201.32 256.41,199.85 255.34,198.8 256.82,198.59 									"/>
								</g>
							</g>
							<rect x="274.61" y="193.61" class="st6" width="39.91" height="46.55"/>
							<g>
								<g>
									<polygon class="st0" points="281.62,197.25 282.28,198.59 283.76,198.8 282.69,199.85 282.95,201.32 281.62,200.62 
										280.3,201.32 280.55,199.85 279.48,198.8 280.96,198.59 									"/>
									<polygon class="st0" points="288.09,197.25 288.75,198.59 290.23,198.8 289.16,199.85 289.41,201.32 288.09,200.62 
										286.77,201.32 287.02,199.85 285.95,198.8 287.43,198.59 									"/>
									<polygon class="st0" points="294.56,197.25 295.22,198.59 296.7,198.8 295.63,199.85 295.88,201.32 294.56,200.62 
										293.24,201.32 293.49,199.85 292.42,198.8 293.9,198.59 									"/>
									<polygon class="st7" points="301.03,197.25 301.69,198.59 303.17,198.8 302.1,199.85 302.35,201.32 301.03,200.62 
										299.71,201.32 299.96,199.85 298.89,198.8 300.37,198.59 									"/>
									<polygon class="st7" points="307.5,197.25 308.16,198.59 309.64,198.8 308.57,199.85 308.82,201.32 307.5,200.62 
										306.18,201.32 306.43,199.85 305.36,198.8 306.84,198.59 									"/>
								</g>
							</g>
							<g>
								<g>
									<polygon class="st0" points="181.58,197.25 182.24,198.59 183.72,198.8 182.65,199.85 182.91,201.32 181.58,200.62 
										180.26,201.32 180.51,199.85 179.44,198.8 180.92,198.59 									"/>
									<polygon class="st7" points="188.05,197.25 188.71,198.59 190.19,198.8 189.12,199.85 189.38,201.32 188.05,200.62 
										186.73,201.32 186.98,199.85 185.91,198.8 187.39,198.59 									"/>
									<polygon class="st7" points="194.52,197.25 195.18,198.59 196.66,198.8 195.59,199.85 195.84,201.32 194.52,200.62 
										193.2,201.32 193.45,199.85 192.38,198.8 193.86,198.59 									"/>
									<polygon class="st7" points="200.99,197.25 201.65,198.59 203.13,198.8 202.06,199.85 202.31,201.32 200.99,200.62 
										199.67,201.32 199.92,199.85 198.85,198.8 200.33,198.59 									"/>
									<polygon class="st7" points="207.46,197.25 208.12,198.59 209.6,198.8 208.53,199.85 208.78,201.32 207.46,200.62 
										206.14,201.32 206.39,199.85 205.32,198.8 206.8,198.59 									"/>
								</g>
							</g>
						</g>
						<rect x="274.61" y="259.71" class="st6" width="39.91" height="115"/>
						<rect x="274.61" y="259.71" class="st8" width="39.91" height="13.43"/>
						<rect x="174.57" y="259.71" class="st8" width="89.93" height="6.71"/>
						<rect x="174.57" y="275.11" class="st6" width="89.93" height="11.96"/>
						<rect x="174.57" y="296.56" class="st6" width="89.93" height="78.16"/>
					</g>
					<g>
						<path class="st9" d="M360.46,391.1h-79.07c-2.11,0-3.83-1.71-3.83-3.83v-63.6c0-2.11,1.71-3.83,3.83-3.83h79.07
							c2.11,0,3.83,1.71,3.83,3.83v63.6C364.28,389.39,362.57,391.1,360.46,391.1z"/>
						<rect x="287.06" y="329.57" class="st10" width="60.29" height="5.78"/>
						<rect x="287.06" y="340.93" class="st10" width="37.99" height="5.78"/>
						<g>
							<g>
								<polygon class="st10" points="292.23,352.74 293.83,355.98 297.4,356.5 294.81,359.02 295.42,362.58 292.23,360.9 
									289.04,362.58 289.65,359.02 287.06,356.5 290.63,355.98 								"/>
								<polygon class="st10" points="306.58,352.74 308.17,355.98 311.74,356.5 309.16,359.02 309.77,362.58 306.58,360.9 
									303.38,362.58 303.99,359.02 301.41,356.5 304.98,355.98 								"/>
								<polygon class="st10" points="320.92,352.74 322.52,355.98 326.09,356.5 323.51,359.02 324.12,362.58 320.92,360.9 
									317.73,362.58 318.34,359.02 315.75,356.5 319.33,355.98 								"/>
								<polygon class="st10" points="335.27,352.74 336.87,355.98 340.44,356.5 337.85,359.02 338.46,362.58 335.27,360.9 
									332.08,362.58 332.69,359.02 330.1,356.5 333.67,355.98 								"/>
								<polygon class="st10" points="349.62,352.74 351.21,355.98 354.78,356.5 352.2,359.02 352.81,362.58 349.62,360.9 
									346.42,362.58 347.03,359.02 344.45,356.5 348.02,355.98 								"/>
							</g>
						</g>
						<path class="st10" d="M352.92,382.02h-64c-1.03,0-1.86-0.83-1.86-1.86v-9.7c0-1.03,0.83-1.86,1.86-1.86h64
							c1.03,0,1.86,0.83,1.86,1.86v9.7C354.78,381.18,353.95,382.02,352.92,382.02z"/>
					</g>
					<g>
						<path class="st9" d="M230.06,322.69h-79.07c-2.11,0-3.83-1.71-3.83-3.83v-63.6c0-2.11,1.71-3.83,3.83-3.83h79.07
							c2.11,0,3.83,1.71,3.83,3.83v63.6C233.88,320.98,232.17,322.69,230.06,322.69z"/>
						<rect x="156.66" y="261.17" class="st10" width="60.29" height="5.78"/>
						<rect x="156.66" y="272.53" class="st10" width="37.99" height="5.78"/>
						<g>
							<g>
								<polygon class="st10" points="161.83,284.34 163.43,287.58 167,288.1 164.41,290.62 165.02,294.17 161.83,292.49 
									158.64,294.17 159.25,290.62 156.66,288.1 160.23,287.58 								"/>
								<polygon class="st10" points="176.18,284.34 177.77,287.58 181.34,288.1 178.76,290.62 179.37,294.17 176.18,292.49 
									172.98,294.17 173.59,290.62 171.01,288.1 174.58,287.58 								"/>
								<polygon class="st10" points="190.52,284.34 192.12,287.58 195.69,288.1 193.11,290.62 193.72,294.17 190.52,292.49 
									187.33,294.17 187.94,290.62 185.36,288.1 188.93,287.58 								"/>
								<polygon class="st10" points="204.87,284.34 206.47,287.58 210.04,288.1 207.45,290.62 208.07,294.17 204.87,292.49 
									201.68,294.17 202.29,290.62 199.7,288.1 203.27,287.58 								"/>
								<polygon class="st10" points="219.22,284.34 220.81,287.58 224.39,288.1 221.8,290.62 222.41,294.17 219.22,292.49 
									216.02,294.17 216.63,290.62 214.05,288.1 217.62,287.58 								"/>
							</g>
						</g>
						<path class="st10" d="M222.52,313.61h-64c-1.03,0-1.86-0.83-1.86-1.86v-9.7c0-1.03,0.83-1.86,1.86-1.86h64
							c1.03,0,1.86,0.83,1.86,1.86v9.7C224.39,312.78,223.55,313.61,222.52,313.61z"/>
					</g>
					<g>
						<path class="st11" d="M169.84,371.05l-27.55,0.18l-40.53,40.53l27.37,27.37l40.53-40.53L169.84,371.05z M159.55,381.33
							c-1.12-1.12-1.12-2.92,0-4.04c1.12-1.12,2.93-1.12,4.04,0c1.12,1.12,1.12,2.92,0,4.04
							C162.48,382.45,160.67,382.45,159.55,381.33z"/>
						<g>
							<polygon class="st10" points="154.24,386.65 151.88,393.6 156.28,399.49 148.93,399.4 144.69,405.39 142.51,398.38 
								135.49,396.2 141.49,391.96 141.4,384.61 147.29,389.01 							"/>
							<polygon class="st10" points="135.52,405.37 133.16,412.33 137.55,418.21 130.21,418.12 125.97,424.12 123.79,417.1 
								116.77,414.92 122.77,410.68 122.68,403.33 128.56,407.73 							"/>
						</g>
					</g>
					<g>
						<path class="st1" d="M440.28,444.08c0,0-45.13,4.66-100.8,4.66c-55.67,0-100.8-4.66-100.8-4.66s45.13-4.66,100.8-4.66
							C395.15,439.42,440.28,444.08,440.28,444.08z"/>
						<g>
							<path class="st12" d="M403.17,236.87c-0.42-1.76-0.72-3.63-1-5.7c-0.5-3.8-1.9-5.99-4.6-8.59c-0.41-0.39-0.78-0.78-1.15-1.16
								c-0.05-0.45-0.13-0.9-0.27-1.33c-0.52-1.61-1.64-2.89-2.8-4.16c-0.14-0.7-0.23-1.45-0.22-2.27c0.03-2.38,0.48-4.69,0.26-7.08
								c-0.28-2.97-1.3-5.66-2.85-8.07c-0.36-2.43-1.34-4.76-2.88-6.67c-2.64-3.27-6.72-5.14-10.87-5.78
								c-4.01-0.62-8.56-0.42-12.9,0.58c-3.88,0.9-7.57,2.45-10.53,4.63c-3.04,2.24-6.04,5.6-6.51,10.25
								c-5.43,7.3-1.38,18.13,3.84,25.46c-1.06,2.29-2.87,4.88-3.48,6.13c-2.56,5.23-5.12,10.6-6.59,16.25
								c-1.95,7.5-2.3,15.31,6.51,17.62c17.31,4.54,38.09,10.06,54.84,0.48c5.44-3.12,9.91-8.67,10.02-14.94
								C412.1,246.31,408.02,240.76,403.17,236.87z M351.35,225.09c-1.68-2.44-3.33-4.89-4.43-7.76c-1.86-4.81-1.86-9.29-0.13-13.71
								c0.4,10.75,4.15,18.14,4.62,20.17C351.5,224.16,351.46,224.6,351.35,225.09z M390.66,201.39c0.01-0.09,0-0.18,0-0.27
								c0.78,1.75,1.29,3.62,1.43,5.62c0.17,2.42-0.41,4.83-0.45,7.24c-0.58-0.73-1.08-1.51-1.41-2.39
								C389.02,208.37,390.45,204.83,390.66,201.39z M396.53,229.6c-0.55-1.97-0.16-4.06-0.06-6.12c0.19,0.19,0.37,0.37,0.57,0.56
								c3.25,3.24,3.45,7.13,3.95,11.13C399.03,233.63,397.19,231.94,396.53,229.6z"/>
							<g>
								<path class="st7" d="M380.15,203.54v8.6c0,1.56-0.28,3.06-0.8,4.43c-1.8,4.8-6.43,8.22-11.86,8.22
									c-6.99,0-12.65-5.67-12.65-12.66v-8.6c0-0.1,0-0.21,0.01-0.31c0.16-4.89,4.18-8.81,9.11-8.81h7.08
									c4.94,0,8.95,3.92,9.11,8.81C380.15,203.34,380.15,203.44,380.15,203.54z"/>
								<path class="st7" d="M380.15,202.95c0,0.1,0,0.19-0.01,0.28c-0.08,3.83-1.87,7.24-4.63,9.51c-2.18,1.79-4.98,2.86-8.02,2.86
									c-6.78,0-12.31-5.33-12.63-12.04c-0.01-0.11-0.01-0.22-0.01-0.33c-0.01-0.09-0.01-0.19-0.01-0.28
									c0-6.99,5.66-12.65,12.65-12.65C374.49,190.3,380.15,195.97,380.15,202.95z"/>
								<path class="st12" d="M380.15,201.13c0.01,0.1,0.01,0.21,0.01,0.31v8.6c0,1.56-0.28,3.06-0.8,4.43l-8.69-8.69
									c-10.13,4.21-15.47-3.82-15.79-4.32c-0.01-0.02-0.02-0.03-0.02-0.03c0-0.1,0-0.21,0.01-0.31c-0.01-0.09-0.01-0.19-0.01-0.28
									c0-6.99,5.66-12.65,12.65-12.65c6.99,0,12.66,5.66,12.66,12.65C380.15,200.94,380.15,201.04,380.15,201.13z"/>
								<path class="st12" d="M382.26,199.77c0.01,0.09,0.01,0.18,0.01,0.28v7.7c0,1.39-0.28,2.73-0.8,3.97l-8.69-7.78
									c-10.13,3.76-15.47-3.41-15.79-3.86c-0.01-0.02-0.02-0.02-0.02-0.02c0-0.09,0-0.18,0.01-0.28
									c-0.01-0.08-0.01-0.17-0.01-0.25c0-6.25,5.66-11.32,12.65-11.32c6.99,0,12.66,5.07,12.66,11.32
									C382.26,199.6,382.26,199.69,382.26,199.77z"/>
								<path class="st7" d="M382.3,214.36c0,2.07-1.68,3.75-3.75,3.75c-2.07,0-3.75-1.68-3.75-3.75s1.68-3.75,3.75-3.75
									C380.61,210.6,382.3,212.28,382.3,214.36z"/>
							</g>
							<g>
								<path class="st7" d="M365.34,248.64c0,0-11.06,15.93-21.39,26.69c-4.18,4.35-8.25,7.86-11.41,9.13
									c-11,4.4-44.81-25.01-44.81-25.01s-5.4,0.59-7.41-0.6c-2-1.2,0-9.61,0-9.61s-6.8-2.6-7.4-4.8c-0.6-2.2,11.2,1.6,12.61,2.03
									c1.4,0.43,3.8,7.17,3.8,7.17c10.6,1.8,37.81,15.4,37.81,15.4s1.03-2.38,3.14-6.53c1.71-3.37,4.12-7.9,7.26-13.27
									c7-12,14.92-16,14.92-16L365.34,248.64z"/>
								<path class="st13" d="M365.34,248.64c0,0-11.06,15.93-21.39,26.69l-13.67-12.81c1.71-3.37,4.12-7.9,7.26-13.27
									c7-12,14.92-16,14.92-16L365.34,248.64z"/>
								<path class="st12" d="M346.1,305.61c0,0-10.86,49.26-10.86,59.6c0,10.34-0.13,69.03-0.13,69.03h10.86
									c0,0,17.2-48.05,10.61-63.86c-0.99-2.37,9.13-17.87,12.27-28.89c5-17.58,4.39-32.73,4.39-32.73L346.1,305.61z"/>
								<path class="st12" d="M363.21,301.35c0,0-0.87,36.49,5.64,52.91c6.52,16.42,19.17,79.98,19.17,79.98h10.95
									c0,0-2.31-108.56-5.65-128.63L363.21,301.35z"/>
								<path class="st11" d="M352.45,273.71l-6.35,31.9l0,0c9.26,3,19.08,3.87,28.73,2.55l18.5-2.55
									c-0.09-6.05-0.29-15.06-0.76-24.72c-0.28-5.73-0.16-12.66-0.65-18.35c-1.22-14.15-3.69-25.74-6.89-29.31h-32.57
									c0,0-10.7,18.14-7.44,24.66C348.26,264.41,352.45,273.71,352.45,273.71z"/>
								<g>
									<path class="st12" d="M345.97,434.25l-0.36,4.38l-0.47,5.96h-25.47c-1.44,0-2.12-1.8-1.01-2.73
										c1.53-1.29,3.59-2.48,5.74-3.53c5.13-2.47,10.72-4.08,10.72-4.08H345.97z"/>
									<path class="st7" d="M345.97,434.25l-0.36,4.38c-1.65,0.9-3.46,1.51-5.3,1.9c-2.94,0.62-5.97,0.69-8.98,0.66
										c-2.69-0.02-5.46-0.7-6.95-2.85c5.13-2.47,10.72-4.08,10.72-4.08H345.97z"/>
								</g>
								<g>
									<g>
										<path class="st11" d="M399.62,345.96h-15.79v-7.9c0-4.35,3.54-7.9,7.9-7.9c4.36,0,7.9,3.54,7.9,7.9V345.96z
											 M385.65,344.14h12.14v-6.07c0-3.35-2.72-6.07-6.07-6.07c-3.35,0-6.07,2.72-6.07,6.07V344.14z"/>
									</g>
									<polygon class="st14" points="409.26,341.65 374.17,341.65 367.32,381.63 416.12,381.63 									"/>
								</g>
								<g>
									<path class="st7" d="M407.24,448.16c-6.5,3.19-18.56-7.92-18.56-7.92l-0.37-3.39l-0.29-2.6h10.95l0.06,2.94
										c0,0,2.83,2.89,5.52,5.13C407.35,444.63,409.62,446.99,407.24,448.16z"/>
									<path class="st12" d="M407.24,448.16c-6.5,3.19-18.56-7.92-18.56-7.92l-0.37-3.39c0.47,0.45,0.88,1,1.33,1.42
										c2.64,2.37,5.88,4.12,9.3,5.1c1.08,0.31,2.24,0.55,3.35,0.35c0.9-0.16,1.78-0.65,2.27-1.41
										C407.35,444.63,409.62,446.99,407.24,448.16z"/>
								</g>
								<path class="st7" d="M395.21,336.1c0,0-10.95-0.58-10.2-5.97c0.54-3.88,11.64-2.85,11.64-2.85s12.7-11.04,12.7-26.99
									c0-7.26-3.55-13.09-7.41-17.27c-4.62-5.03-9.69-7.7-9.69-7.7c-0.23-6.98-0.93-13.93-2.09-20.81
									c-1.17-6.87-2.79-13.67-4.86-20.34l-0.29-0.94c0,0,25.82,11.25,35.31,39.13c1.85,5.41,3.08,11.45,3.39,18.15
									C425.32,325.15,395.21,336.1,395.21,336.1z"/>
								<path class="st13" d="M420.33,272.37l-18.38,10.66c-4.62-5.03-9.69-7.7-9.69-7.7c-0.23-6.98-0.93-13.93-2.09-20.81
									c-1.17-6.87-2.79-13.67-4.86-20.34l-0.29-0.94C385.02,233.24,410.83,244.49,420.33,272.37z"/>
							</g>
							<path class="st7" d="M363.17,219.79l-1.81,8.44l-8.91,5.01c0,0,3.44,8.59,12.89,8.59c9.45,0,19.68-8.59,19.68-8.59
								l-9.02-4.66l-1.72-9.99L363.17,219.79z"/>
							<path class="st5" d="M362.33,223.7c0,0,6.02,3.61,12.59-1.31l0.8,4.66l-0.4,0.2c-4.37,2.25-9.66,1.67-13.45-1.46l0,0
								L362.33,223.7z"/>
						</g>
					</g>
					<path class="st7" d="M55.44,67.14l-1.4-4.93l-1.4,4.93c-1.18,4.16-3.98,7.66-7.77,9.74l0,0l0,0c3.79,2.07,6.59,5.58,7.77,9.74
						l1.4,4.93l1.4-4.93c1.18-4.16,3.98-7.66,7.77-9.74l0,0l0,0C59.41,74.8,56.62,71.29,55.44,67.14z"/>
					<path class="st7" d="M470.07,387.32l-1.4-4.93l-1.4,4.93c-1.18,4.16-3.98,7.66-7.77,9.74l0,0l0,0
						c3.79,2.07,6.59,5.58,7.77,9.74l1.4,4.93l1.4-4.93c1.18-4.16,3.98-7.66,7.77-9.74l0,0l0,0
						C474.05,394.98,471.25,391.48,470.07,387.32z"/>
					<path class="st6" d="M422.39,154.64l1.4-4.93l1.4,4.93c1.18,4.16,3.98,7.66,7.77,9.74l0,0l0,0c-3.79,2.07-6.59,5.58-7.77,9.74
						l-1.4,4.93l-1.4-4.93c-1.18-4.16-3.98-7.66-7.77-9.74l0,0l0,0C418.41,162.31,421.21,158.8,422.39,154.64z"/>
					<path class="st6" d="M192.68,32.2l1.4-4.93l1.4,4.93c1.18,4.16,3.98,7.66,7.77,9.74l0,0l0,0c-3.79,2.07-6.59,5.58-7.77,9.74
						l-1.4,4.93l-1.4-4.93c-1.18-4.16-3.98-7.67-7.77-9.74l0,0l0,0C188.71,39.86,191.51,36.36,192.68,32.2z"/>
					<path class="st7" d="M78.85,46.34l-0.99-3.51l-0.99,3.51c-0.84,2.96-2.83,5.45-5.52,6.92l0,0l0,0
						c2.69,1.47,4.68,3.97,5.52,6.93l0.99,3.51l0.99-3.51c0.84-2.96,2.83-5.45,5.52-6.93l0,0l0,0
						C81.67,51.79,79.68,49.3,78.85,46.34z"/>
					<path class="st6" d="M45.87,402.03l-0.99-3.51l-0.99,3.51c-0.84,2.96-2.83,5.45-5.52,6.93l0,0l0,0
						c2.7,1.47,4.69,3.97,5.52,6.93l0.99,3.51l0.99-3.51c0.84-2.96,2.83-5.45,5.52-6.93l0,0l0,0
						C48.7,407.48,46.71,404.98,45.87,402.03z"/>
					<path class="st11" d="M67.04,422.89l-1-3.51l-0.99,3.51c-0.84,2.96-2.83,5.45-5.52,6.92l0,0l0,0c2.7,1.48,4.69,3.97,5.52,6.93
						l0.99,3.51l1-3.51c0.84-2.96,2.83-5.45,5.52-6.93l0,0l0,0C69.87,428.34,67.88,425.85,67.04,422.89z"/>
					<path class="st6" d="M401.98,121.76l-0.99-3.51l-0.99,3.51c-0.84,2.96-2.83,5.45-5.52,6.92l0,0l0,0
						c2.7,1.47,4.69,3.97,5.52,6.93l0.99,3.51l0.99-3.51c0.84-2.96,2.83-5.45,5.53-6.93l0,0l0,0
						C404.81,127.21,402.82,124.72,401.98,121.76z"/>
					<path class="st7" d="M454.47,369.53l-0.99-3.51l-0.99,3.51c-0.84,2.96-2.83,5.45-5.52,6.93l0,0l0,0
						c2.7,1.47,4.69,3.97,5.52,6.93l0.99,3.51l0.99-3.51c0.84-2.96,2.83-5.45,5.52-6.93l0,0l0,0
						C457.29,374.98,455.3,372.49,454.47,369.53z"/>
					<rect x="224.59" y="243.94" class="st15" width="39.91" height="11.02"/>
					<g>
						<path class="st6" d="M57.71,131.34h40.29c5.42,0,9.81,4.39,9.81,9.81v40.29c0,4.58-3.14,8.41-7.38,9.5v16.41l-16.09-16.09
							H57.71c-5.42,0-9.81-4.39-9.81-9.81v-40.29C47.9,135.73,52.29,131.34,57.71,131.34z"/>
						<g>
							<g>
								<path class="st10" d="M98.02,157.21c-0.06-1.29-1.18-2.29-2.47-2.29h-3.82l-6.52,0h-1.67c0,0,0.61-5.1,0.45-6.06
									c-0.15-0.96-2.32-6.27-2.32-6.27s-0.61-0.91-1.82-0.61c-1.21,0.3-1.36,1.11-1.36,1.11l0.25,5.61
									c-0.56,2.68-5.26,8.59-5.26,8.59l-1.52,1.16v12.94l0.56,0.79c0.6,0.84,1.56,1.33,2.59,1.33l6.63,0h9.98h0.43
									c1.33,0,2.4-1.08,2.4-2.4c0-1.01-0.62-1.87-1.5-2.23h0.17c1.29,0,2.4-0.99,2.46-2.28c0.05-1.04-0.55-1.94-1.44-2.32h0.05
									c1.33,0,2.4-1.08,2.4-2.4c0-0.94-0.55-1.76-1.34-2.15h0.25C96.98,159.73,98.08,158.59,98.02,157.21z"/>
								<path class="st10" d="M67.67,154.47l-7.86,0c-1.17,0-2.12,0.95-2.12,2.12v15.76c0,1.17,0.95,2.12,2.12,2.12h7.86
									c1.17,0,2.12-0.95,2.12-2.12l0-15.76C69.78,155.42,68.84,154.47,67.67,154.47z M66.27,172.66c-0.74,0-1.34-0.6-1.34-1.34
									c0-0.74,0.6-1.34,1.34-1.34c0.74,0,1.34,0.6,1.34,1.34C67.61,172.06,67.01,172.66,66.27,172.66z"/>
							</g>
						</g>
					</g>
					<g>
						<path class="st6" d="M352.65,15.56h-40.29c-5.42,0-9.81,4.39-9.81,9.81v40.29c0,4.58,3.14,8.41,7.38,9.5v16.41l16.09-16.09
							h26.63c5.42,0,9.81-4.39,9.81-9.81V25.37C362.46,19.95,358.07,15.56,352.65,15.56z"/>
						<g>
							<g>
								<path class="st10" d="M352.67,41.43c-0.06-1.29-1.18-2.29-2.47-2.29h-3.82l-6.52,0h-1.67c0,0,0.61-5.1,0.45-6.06
									c-0.15-0.96-2.32-6.27-2.32-6.27s-0.61-0.91-1.82-0.61c-1.21,0.3-1.36,1.11-1.36,1.11l0.25,5.61
									c-0.56,2.68-5.26,8.59-5.26,8.59l-1.52,1.16v12.94l0.56,0.79c0.6,0.84,1.56,1.33,2.59,1.33l6.63,0h9.98h0.43
									c1.33,0,2.4-1.08,2.4-2.4c0-1.01-0.62-1.87-1.5-2.23h0.17c1.29,0,2.4-0.99,2.46-2.28c0.05-1.04-0.55-1.94-1.44-2.32h0.05
									c1.33,0,2.4-1.08,2.4-2.4c0-0.94-0.55-1.76-1.34-2.15h0.25C351.63,43.94,352.73,42.81,352.67,41.43z"/>
								<path class="st10" d="M322.32,38.69l-7.86,0c-1.17,0-2.12,0.95-2.12,2.12l0,15.76c0,1.17,0.95,2.12,2.12,2.12h7.86
									c1.17,0,2.12-0.95,2.12-2.12V40.81C324.44,39.64,323.49,38.69,322.32,38.69z M320.92,56.87c-0.74,0-1.34-0.6-1.34-1.34
									c0-0.74,0.6-1.34,1.34-1.34c0.74,0,1.34,0.6,1.34,1.34S321.66,56.87,320.92,56.87z"/>
							</g>
						</g>
					</g>
					<g>
						<g>
							<path class="st10" d="M292.69,409.44h-15.79v-7.9c0-4.36,3.54-7.9,7.9-7.9s7.9,3.54,7.9,7.9V409.44z M278.72,407.62h12.14
								v-6.07c0-3.35-2.72-6.07-6.07-6.07c-3.35,0-6.07,2.73-6.07,6.07V407.62z"/>
						</g>
						<polygon class="st0" points="302.34,405.13 267.24,405.13 260.39,445.12 309.19,445.12 						"/>
					</g>
				</g>
			</g>
		</g>
	</g>
</g>
</svg>
